#Comment line ignore any data following # character 
#Hierarchical Translation and Rotation (.htr) file 
[Header]	
#Header keywords are followed by a single value 
FileType HTR		#Single word string
DataType HTRS		#Translation followed by rotation and scale data
FileVersion 1		#integer
NumSegments 84		#integer
NumFrames 2		#integer
DataFrameRate 30		#integer, data frame rate in this file
EulerRotationOrder ZYX
CalibrationUnits mm
RotationUnits Degrees
GlobalAxisofGravity Y
BoneLengthAxis Y
ScaleFactor 1.00
[SegmentNames&Hierarchy]
#CHILD	PARENT
MASTER GLOBAL
root MASTER
chest root
L_mid_tent01 root
R_mid_tent01 root
spine01 root
Bip01_Neck chest
L_humerus chest
R_humerus chest
weapon_bone chest
Bip01_Head Bip01_Neck
eye_left_bone Bip01_Head
eye_right_bone Bip01_Head
L_forearm L_humerus
L_front_hand L_forearm
L_weapon_bone L_forearm
L_front_hand01_01 L_front_hand
L_front_hand02_01 L_front_hand
L_front_hand03_01 L_front_hand
L_front_hand01_02 L_front_hand01_01
L_front_hand02_02 L_front_hand02_01
L_front_hand03_02 L_front_hand03_01
R_forearm R_humerus
R_front_hand R_forearm
R_weapon_bone R_forearm
R_front_hand01_01 R_front_hand
R_front_hand02_01 R_front_hand
R_front_hand03_01 R_front_hand
R_front_hand01_02 R_front_hand01_01
R_front_hand02_02 R_front_hand02_01
R_front_hand03_02 R_front_hand03_01
null_rope01_connect L_mid_tent01
Rope1_Seg01 null_rope01_connect
Rope1_Seg02 Rope1_Seg01
Rope1_Seg03 Rope1_Seg02
Rope1_Seg04 Rope1_Seg03
Rope1_Seg05 Rope1_Seg04
Rope1_Seg06 Rope1_Seg05
Rope1_Seg07 Rope1_Seg06
Rope1_Seg09 Rope1_Seg07
L_mid_hand01 Rope1_Seg09
L_mid_hand02 Rope1_Seg09
L_mid_hand03 Rope1_Seg09
null_rope02_connect R_mid_tent01
Rope2_Seg01 null_rope02_connect
Rope2_Seg02 Rope2_Seg01
Rope2_Seg03 Rope2_Seg02
Rope2_Seg04 Rope2_Seg03
Rope2_Seg05 Rope2_Seg04
Rope2_Seg06 Rope2_Seg05
Rope2_Seg07 Rope2_Seg06
Rope2_Seg09 Rope2_Seg07
R_mid_hand01 Rope2_Seg09
R_mid_hand02 Rope2_Seg09
R_mid_hand03 Rope2_Seg09
spine02 spine01
spine03 spine02
pelvis spine03
null_rope03_connect pelvis
null_rope04_connect pelvis
Rope3_Seg01 null_rope03_connect
Rope3_Seg02 Rope3_Seg01
Rope3_Seg03 Rope3_Seg02
Rope3_Seg04 Rope3_Seg03
Rope3_Seg05 Rope3_Seg04
Rope3_Seg06 Rope3_Seg05
Rope3_Seg07 Rope3_Seg06
Rope3_Seg08 Rope3_Seg07
Rope3_Seg09 Rope3_Seg08
R_rear_hand01 Rope3_Seg09
R_rear_hand02 Rope3_Seg09
R_rear_hand03 Rope3_Seg09
Rope4_Seg01 null_rope04_connect
Rope4_Seg02 Rope4_Seg01
Rope4_Seg03 Rope4_Seg02
Rope4_Seg04 Rope4_Seg03
Rope4_Seg05 Rope4_Seg04
Rope4_Seg06 Rope4_Seg05
Rope4_Seg07 Rope4_Seg06
Rope4_Seg08 Rope4_Seg07
Rope4_Seg09 Rope4_Seg08
L_rear_hand01 Rope4_Seg09
L_rear_hand02 Rope4_Seg09
L_rear_hand03 Rope4_Seg09
[BasePosition]
#SegmentName Tx, Ty, Tz, Rx, Ry, Rz, BoneLength
MASTER 0.000000 0.000000 0.000000 -90.000000 0.000000 0.000000 10.000000 
root 0.000000 0.000000 0.000000 0.000000 0.000000 0.000000 10.000000 
chest 0.000000 0.000000 0.000000 0.000000 0.000000 0.000000 10.000000 
L_mid_tent01 0.000000 0.000000 0.000000 0.000000 0.000000 0.000000 10.000000 
R_mid_tent01 0.000000 0.000000 0.000000 0.000000 0.000000 0.000000 10.000000 
spine01 0.000000 0.000000 0.000000 0.000000 0.000000 0.000000 10.000000 
Bip01_Neck 0.000000 0.000000 0.000000 0.000000 0.000000 0.000000 10.000000 
L_humerus 0.000000 0.000000 0.000000 0.000000 0.000000 0.000000 10.000000 
R_humerus 0.000000 0.000000 0.000000 0.000000 0.000000 0.000000 10.000000 
weapon_bone 0.000000 0.000000 0.000000 0.000000 0.000000 0.000000 10.000000 
Bip01_Head 0.000000 0.000000 0.000000 0.000000 0.000000 0.000000 10.000000 
eye_left_bone 0.000000 0.000000 0.000000 0.000000 0.000000 0.000000 10.000000 
eye_right_bone 0.000000 0.000000 0.000000 0.000000 0.000000 0.000000 10.000000 
L_forearm 0.000000 0.000000 0.000000 0.000000 0.000000 0.000000 10.000000 
L_front_hand 0.000000 0.000000 0.000000 0.000000 0.000000 0.000000 10.000000 
L_weapon_bone 0.000000 0.000000 0.000000 0.000000 0.000000 0.000000 10.000000 
L_front_hand01_01 0.000000 0.000000 0.000000 0.000000 0.000000 0.000000 10.000000 
L_front_hand02_01 0.000000 0.000000 0.000000 0.000000 0.000000 0.000000 10.000000 
L_front_hand03_01 0.000000 0.000000 0.000000 0.000000 0.000000 0.000000 10.000000 
L_front_hand01_02 0.000000 0.000000 0.000000 0.000000 0.000000 0.000000 10.000000 
L_front_hand02_02 0.000000 0.000000 0.000000 0.000000 0.000000 0.000000 10.000000 
L_front_hand03_02 0.000000 0.000000 0.000000 0.000000 0.000000 0.000000 10.000000 
R_forearm 0.000000 0.000000 0.000000 0.000000 0.000000 0.000000 10.000000 
R_front_hand 0.000000 0.000000 0.000000 0.000000 0.000000 0.000000 10.000000 
R_weapon_bone 0.000000 0.000000 0.000000 0.000000 0.000000 0.000000 10.000000 
R_front_hand01_01 0.000000 0.000000 0.000000 0.000000 0.000000 0.000000 10.000000 
R_front_hand02_01 0.000000 0.000000 0.000000 0.000000 0.000000 0.000000 10.000000 
R_front_hand03_01 0.000000 0.000000 0.000000 0.000000 0.000000 0.000000 10.000000 
R_front_hand01_02 0.000000 0.000000 0.000000 0.000000 0.000000 0.000000 10.000000 
R_front_hand02_02 0.000000 0.000000 0.000000 0.000000 0.000000 0.000000 10.000000 
R_front_hand03_02 0.000000 0.000000 0.000000 0.000000 0.000000 0.000000 10.000000 
null_rope01_connect 0.000000 0.000000 0.000000 0.000000 0.000000 0.000000 10.000000 
Rope1_Seg01 0.000000 0.000000 0.000000 0.000000 0.000000 0.000000 10.000000 
Rope1_Seg02 0.000000 0.000000 0.000000 0.000000 0.000000 0.000000 10.000000 
Rope1_Seg03 0.000000 0.000000 0.000000 0.000000 0.000000 0.000000 10.000000 
Rope1_Seg04 0.000000 0.000000 0.000000 0.000000 0.000000 0.000000 10.000000 
Rope1_Seg05 0.000000 0.000000 0.000000 0.000000 0.000000 0.000000 10.000000 
Rope1_Seg06 0.000000 0.000000 0.000000 0.000000 0.000000 0.000000 10.000000 
Rope1_Seg07 0.000000 0.000000 0.000000 0.000000 0.000000 0.000000 10.000000 
Rope1_Seg09 0.000000 0.000000 0.000000 0.000000 0.000000 0.000000 10.000000 
L_mid_hand01 0.000000 0.000000 0.000000 0.000000 0.000000 0.000000 10.000000 
L_mid_hand02 0.000000 0.000000 0.000000 0.000000 0.000000 0.000000 10.000000 
L_mid_hand03 0.000000 0.000000 0.000000 0.000000 0.000000 0.000000 10.000000 
null_rope02_connect 0.000000 0.000000 0.000000 0.000000 0.000000 0.000000 10.000000 
Rope2_Seg01 0.000000 0.000000 0.000000 0.000000 0.000000 0.000000 10.000000 
Rope2_Seg02 0.000000 0.000000 0.000000 0.000000 0.000000 0.000000 10.000000 
Rope2_Seg03 0.000000 0.000000 0.000000 0.000000 0.000000 0.000000 10.000000 
Rope2_Seg04 0.000000 0.000000 0.000000 0.000000 0.000000 0.000000 10.000000 
Rope2_Seg05 0.000000 0.000000 0.000000 0.000000 0.000000 0.000000 10.000000 
Rope2_Seg06 0.000000 0.000000 0.000000 0.000000 0.000000 0.000000 10.000000 
Rope2_Seg07 0.000000 0.000000 0.000000 0.000000 0.000000 0.000000 10.000000 
Rope2_Seg09 0.000000 0.000000 0.000000 0.000000 0.000000 0.000000 10.000000 
R_mid_hand01 0.000000 0.000000 0.000000 0.000000 0.000000 0.000000 10.000000 
R_mid_hand02 0.000000 0.000000 0.000000 0.000000 0.000000 0.000000 10.000000 
R_mid_hand03 0.000000 0.000000 0.000000 0.000000 0.000000 0.000000 10.000000 
spine02 0.000000 0.000000 0.000000 0.000000 0.000000 0.000000 10.000000 
spine03 0.000000 0.000000 0.000000 0.000000 0.000000 0.000000 10.000000 
pelvis 0.000000 0.000000 0.000000 0.000000 0.000000 0.000000 10.000000 
null_rope03_connect 0.000000 0.000000 0.000000 0.000000 0.000000 0.000000 10.000000 
null_rope04_connect 0.000000 0.000000 0.000000 0.000000 0.000000 0.000000 10.000000 
Rope3_Seg01 0.000000 0.000000 0.000000 0.000000 0.000000 0.000000 10.000000 
Rope3_Seg02 0.000000 0.000000 0.000000 0.000000 0.000000 0.000000 10.000000 
Rope3_Seg03 0.000000 0.000000 0.000000 0.000000 0.000000 0.000000 10.000000 
Rope3_Seg04 0.000000 0.000000 0.000000 0.000000 0.000000 0.000000 10.000000 
Rope3_Seg05 0.000000 0.000000 0.000000 0.000000 0.000000 0.000000 10.000000 
Rope3_Seg06 0.000000 0.000000 0.000000 0.000000 0.000000 0.000000 10.000000 
Rope3_Seg07 0.000000 0.000000 0.000000 0.000000 0.000000 0.000000 10.000000 
Rope3_Seg08 0.000000 0.000000 0.000000 0.000000 0.000000 0.000000 10.000000 
Rope3_Seg09 0.000000 0.000000 0.000000 0.000000 0.000000 0.000000 10.000000 
R_rear_hand01 0.000000 0.000000 0.000000 0.000000 0.000000 0.000000 10.000000 
R_rear_hand02 0.000000 0.000000 0.000000 0.000000 0.000000 0.000000 10.000000 
R_rear_hand03 0.000000 0.000000 0.000000 0.000000 0.000000 0.000000 10.000000 
Rope4_Seg01 0.000000 0.000000 0.000000 0.000000 0.000000 0.000000 10.000000 
Rope4_Seg02 0.000000 0.000000 0.000000 0.000000 0.000000 0.000000 10.000000 
Rope4_Seg03 0.000000 0.000000 0.000000 0.000000 0.000000 0.000000 10.000000 
Rope4_Seg04 0.000000 0.000000 0.000000 0.000000 0.000000 0.000000 10.000000 
Rope4_Seg05 0.000000 0.000000 0.000000 0.000000 0.000000 0.000000 10.000000 
Rope4_Seg06 0.000000 0.000000 0.000000 0.000000 0.000000 0.000000 10.000000 
Rope4_Seg07 0.000000 0.000000 0.000000 0.000000 0.000000 0.000000 10.000000 
Rope4_Seg08 0.000000 0.000000 0.000000 0.000000 0.000000 0.000000 10.000000 
Rope4_Seg09 0.000000 0.000000 0.000000 0.000000 0.000000 0.000000 10.000000 
L_rear_hand01 0.000000 0.000000 0.000000 0.000000 0.000000 0.000000 10.000000 
L_rear_hand02 0.000000 0.000000 0.000000 0.000000 0.000000 0.000000 10.000000 
L_rear_hand03 0.000000 0.000000 0.000000 0.000000 0.000000 0.000000 10.000000 
#Beginning of Data. Separated by tabs
#Fr	Tx	Ty	Tz	Rx	Ry	Rz	SF
[MASTER]
28 -1354.124390 163.131348 1515.048706 0.001660 0.001660 0.001660 2038.538086
29 -1354.124390 163.131348 1515.048706 0.001660 0.001660 0.001660 2038.538086
[root]
28 20.013123 -118.897354 462.015350 -165.906464 -13.025650 -69.716782 477.488556
29 20.013123 -118.897354 462.015350 -166.172409 -12.969009 -69.551727 477.488556
[chest]
28 -84.512650 -34.090519 0.000000 -40.219879 -25.688421 -178.166672 91.129311
29 -84.512650 -34.090519 0.000000 -40.316906 -25.923004 -177.900543 91.129311
[L_mid_tent01]
28 27.299160 22.179245 -249.918732 -8.358306 14.634691 47.124329 252.381729
29 27.299164 22.179249 -249.918732 -7.918777 14.689780 48.682308 252.381729
[R_mid_tent01]
28 23.228794 24.509907 226.238495 179.935349 -21.007456 29.351089 228.744751
29 23.228794 24.509907 226.238495 179.998703 -21.043715 29.434690 228.744751
[spine01]
28 -0.361383 -0.195265 0.000000 0.001956 0.001298 22.883839 0.410763
29 -0.361383 -0.195265 0.000000 0.001956 0.001298 22.853567 0.410763
[Bip01_Neck]
28 165.484543 71.581718 0.000119 176.643677 -1.657967 43.431911 180.302734
29 165.484543 71.581718 0.000119 176.643677 -1.657967 43.431911 180.302734
[L_humerus]
28 -13.983130 -135.272980 -120.471481 152.068008 72.307617 -116.015816 181.680161
29 -13.983130 -135.272980 -120.471481 151.811508 72.256569 -116.294655 181.680161
[R_humerus]
28 -13.983309 -135.273102 125.287651 -73.313492 -60.093346 173.016357 184.909012
29 -13.983309 -135.273102 125.287651 -74.872917 -61.055061 174.382080 184.909012
[weapon_bone]
28 235.964890 -300.705902 0.000000 0.000000 -89.951546 -128.212341 382.234833
29 235.964890 -300.705902 0.000000 0.000000 -89.951546 -128.212341 382.234833
[Bip01_Head]
28 213.443741 185.716965 11.758878 -9.350605 3.500908 -43.857937 283.173615
29 213.424484 185.770615 11.066513 -7.904799 3.930337 -43.853287 283.166382
[eye_left_bone]
28 -24.626970 125.451866 -64.772606 0.000000 -90.000000 -99.840431 143.318359
29 -24.626970 125.451866 -64.772606 0.000000 -90.000000 -99.840431 143.318359
[eye_right_bone]
28 -24.626970 125.451866 64.327362 0.000000 -89.965736 80.156380 143.117676
29 -24.626970 125.451866 64.327362 0.000000 -89.965736 80.156380 143.117676
[L_forearm]
28 322.776093 0.000000 -0.000119 0.000203 -0.002338 -99.928581 322.776093
29 322.776093 0.000000 -0.000119 0.000210 -0.002338 -100.253311 322.776093
[L_front_hand]
28 241.149185 -0.042021 -3.300071 -26.559959 -1.836769 -27.424450 241.171753
29 241.149185 -0.042021 -3.300071 -65.421791 -1.835780 -27.425007 241.171753
[L_weapon_bone]
28 156.183838 0.000000 0.000000 0.000014 0.000007 0.000001 156.183838
29 156.183838 0.000000 0.000000 0.000014 0.000007 0.000001 156.183838
[L_front_hand01_01]
28 86.095154 20.947098 -0.655860 -0.366594 -0.477154 75.385582 88.609184
29 86.095154 20.947098 -0.655860 -0.366594 -0.477154 75.385582 88.609184
[L_front_hand02_01]
28 86.935165 -11.437475 24.513514 154.399811 -59.883835 -61.369606 91.046425
29 86.935165 -11.437475 24.513514 154.399811 -59.883835 -61.369606 91.046425
[L_front_hand03_01]
28 86.637497 -14.123976 -20.424902 -153.913849 58.118122 -62.702866 90.126129
29 86.637497 -14.123976 -20.424902 -153.913849 58.118130 -62.702866 90.126129
[L_front_hand01_02]
28 71.020905 -0.000179 0.000030 0.000667 0.002281 -57.378830 71.020905
29 71.020905 -0.000179 0.000030 0.000299 0.002328 -75.372368 71.020905
[L_front_hand02_02]
28 71.020927 -0.000119 0.000060 0.000667 0.002281 -57.378830 71.020927
29 71.020927 -0.000119 0.000060 0.000299 0.002328 -75.372368 71.020927
[L_front_hand03_02]
28 71.020905 -0.000060 0.000060 0.000667 0.002281 -57.378830 71.020905
29 71.020905 -0.000060 0.000060 0.000299 0.002328 -75.372368 71.020905
[R_forearm]
28 322.776428 -0.000060 0.000030 0.209470 0.028394 -98.493187 322.776428
29 322.776428 -0.000060 0.000030 0.210460 0.030246 -98.821388 322.776428
[R_front_hand]
28 238.847015 -0.006795 2.210259 -2.635298 -10.645461 -26.312506 238.857239
29 238.847015 -0.006795 2.210259 -2.635298 -10.645461 -26.312506 238.857239
[R_weapon_bone]
28 155.664093 0.002503 -0.000030 0.003487 0.001180 -90.988930 155.664078
29 155.664093 0.002503 -0.000030 0.003487 0.001180 -90.988930 155.664078
[R_front_hand01_01]
28 87.624611 14.231146 22.918642 -154.633499 -59.950619 61.746044 91.683487
29 87.624611 14.231146 22.918642 -154.633484 -59.950607 61.746033 91.683487
[R_front_hand02_01]
28 89.356956 14.367283 -19.491137 154.602661 58.302856 63.744389 92.579636
29 89.356956 14.367283 -19.491137 154.602661 58.302856 63.744389 92.579636
[R_front_hand03_01]
28 87.286232 -22.307278 -0.143439 0.162155 -0.423168 -75.767921 90.091743
29 87.286232 -22.307278 -0.143439 0.162155 -0.423168 -75.767906 90.091743
[R_front_hand01_02]
28 71.020905 0.000060 0.000119 0.002323 -0.000334 106.381714 71.020905
29 71.020905 0.000060 0.000119 0.002323 -0.000334 106.381714 71.020905
[R_front_hand02_02]
28 71.020844 -0.000030 -0.000119 0.002323 -0.000334 106.381714 71.020836
29 71.020844 -0.000030 -0.000119 0.002323 -0.000334 106.381714 71.020836
[R_front_hand03_02]
28 71.020905 0.000000 0.000030 0.002323 -0.000334 106.381714 71.020905
29 71.020905 0.000000 0.000030 0.002323 -0.000334 106.381714 71.020905
[null_rope01_connect]
28 328.732483 0.000000 -0.000238 -163.532333 -3.521394 -119.140343 328.732483
29 328.732483 0.000000 -0.000238 -163.623459 -3.415970 -120.464195 328.732483
[Rope1_Seg01]
28 0.000118 -0.000068 0.000035 41.399780 -65.906654 67.464180 0.000140
29 0.000122 -0.000069 0.000031 45.666214 -65.577782 62.772713 0.000143
[Rope1_Seg02]
28 139.999863 -0.000179 0.000000 0.143546 5.769014 3.208284 139.999863
29 139.999863 -0.000179 0.000000 0.110861 5.968269 3.519243 139.999863
[Rope1_Seg03]
28 139.999924 0.000060 -0.000060 0.071820 9.963388 5.590171 139.999924
29 139.999924 0.000060 -0.000060 0.055926 10.369302 6.182478 139.999924
[Rope1_Seg04]
28 139.999924 -0.000060 -0.000119 -0.595061 22.772945 11.525681 139.999924
29 139.999924 -0.000060 -0.000119 -0.348629 23.377747 12.967626 139.999924
[Rope1_Seg05]
28 139.999832 0.000119 -0.000060 -2.064301 21.454840 16.420404 139.999832
29 139.999832 0.000119 -0.000060 -1.743322 20.751276 16.523031 139.999832
[Rope1_Seg06]
28 139.999954 0.000119 -0.000060 -1.057846 3.626430 16.318600 139.999954
29 139.999954 0.000119 -0.000060 -0.899839 3.240159 15.155948 139.999954
[Rope1_Seg07]
28 139.999985 0.000060 0.000000 1.299841 6.439220 14.998228 139.999985
29 139.999985 0.000060 0.000000 1.376369 6.333796 15.095540 139.999985
[Rope1_Seg09]
28 121.602913 0.000119 -0.000089 -89.793175 -1.359789 0.847147 121.602913
29 121.602913 0.000119 -0.000089 -89.793175 -1.359789 0.847147 121.602913
[L_mid_hand01]
28 103.859421 1.038730 8.195221 129.753738 -67.188759 -38.008968 104.187431
29 103.859421 1.038730 8.195221 130.544373 -67.584534 -38.866943 104.187431
[L_mid_hand02]
28 105.572853 -4.139662 -10.864139 -168.447937 43.306499 -72.811859 106.211075
29 105.572853 -4.139662 -10.864139 -168.923172 43.409309 -73.498886 106.211075
[L_mid_hand03]
28 104.641464 17.579376 -3.913581 -6.178542 17.755547 74.357048 106.179977
29 104.641464 17.579376 -3.913581 -6.012627 17.808174 74.893669 106.179977
[null_rope02_connect]
28 328.732849 0.000179 -0.000119 -14.829891 19.503399 91.436531 328.732849
29 328.732849 0.000179 -0.000119 -14.839776 19.319033 91.473396 328.732849
[Rope2_Seg01]
28 0.000126 0.000144 -0.000118 75.608879 75.032021 11.867113 0.000225
29 0.000130 0.000145 -0.000122 75.854500 76.096451 11.972401 0.000230
[Rope2_Seg02]
28 139.999741 -0.000060 -0.000119 -0.843982 14.627357 -6.892093 139.999756
29 139.999741 -0.000060 -0.000119 -0.893250 14.360021 -6.305143 139.999756
[Rope2_Seg03]
28 140.000107 0.000030 0.000000 -9.030494 39.022343 -20.143621 140.000107
29 140.000107 0.000030 0.000000 -11.752949 39.740406 -18.586332 140.000107
[Rope2_Seg04]
28 139.999802 0.000000 -0.000060 -178.763824 37.347206 -16.906244 139.999802
29 139.999802 0.000000 -0.000060 -168.196396 39.432487 -13.539517 139.999802
[Rope2_Seg05]
28 139.999985 -0.000060 0.000119 -15.970622 3.972638 4.007697 139.999985
29 139.999985 -0.000060 0.000119 -19.859625 6.382879 4.149802 139.999985
[Rope2_Seg06]
28 139.999893 -0.000030 -0.000119 -24.586500 7.053482 3.921163 139.999893
29 139.999893 -0.000030 -0.000119 -27.329716 7.237957 4.525307 139.999893
[Rope2_Seg07]
28 139.999893 0.000060 -0.000060 -8.156975 0.033530 2.533143 139.999893
29 139.999893 0.000060 -0.000060 -9.050544 0.027390 2.832606 139.999893
[Rope2_Seg09]
28 121.338966 0.000089 -0.000060 33.793236 -1.359788 -0.847141 121.338966
29 121.338966 0.000089 -0.000060 33.793236 -1.359788 -0.847141 121.338966
[R_mid_hand01]
28 104.680779 11.144459 -10.335981 -23.980085 42.262276 59.248211 105.778534
29 104.680779 11.144459 -10.335981 -21.077972 43.559654 63.514454 105.778534
[R_mid_hand02]
28 104.070427 2.443552 8.231699 59.529942 -60.717213 27.702374 104.424065
29 104.070427 2.443552 8.231699 56.113041 -63.580791 31.561995 104.424065
[R_mid_hand03]
28 106.028137 -11.221827 -5.996406 -174.753189 14.937832 -67.669350 106.788818
29 106.028137 -11.221827 -5.996406 -175.658295 15.220737 -71.161560 106.788818
[spine02]
28 129.756927 0.001550 0.000119 -0.610931 -4.014232 0.816547 129.756927
29 129.756927 0.001550 0.000119 -0.579633 -4.020040 0.346980 129.756927
[spine03]
28 78.614044 0.081081 -4.898989 1.305635 4.070147 7.925077 78.766579
29 78.614044 0.081055 -4.898989 1.325442 4.062851 8.211746 78.766579
[pelvis]
28 169.435242 0.051022 0.000000 -0.002853 -0.191383 -3.220919 169.435257
29 169.435242 0.051022 0.000000 -0.003832 -0.191364 -2.634619 169.435257
[null_rope03_connect]
28 -1.257226 -2.466202 137.391083 -172.710754 -17.846924 -97.578827 137.418976
29 -1.257226 -2.466202 137.391083 -172.720963 -17.626038 -97.832069 137.418976
[null_rope04_connect]
28 -1.259640 -2.480268 -137.844437 -172.710754 -17.846924 -97.578827 137.872513
29 -1.259640 -2.480268 -137.844437 -172.720963 -17.626038 -97.832069 137.872513
[Rope3_Seg01]
28 0.000000 0.000000 0.000000 31.807858 32.246269 -52.944702 0.000000
29 0.000000 0.000000 0.000000 32.861771 33.651531 -52.454086 0.000000
[Rope3_Seg02]
28 139.999924 -0.000119 0.000060 3.983354 2.542285 -14.187648 139.999924
29 139.999924 -0.000119 0.000060 3.823065 2.190922 -13.149480 139.999924
[Rope3_Seg03]
28 139.999924 -0.000119 0.000119 0.205706 2.678087 -39.092205 139.999924
29 139.999924 -0.000119 0.000119 0.911342 2.215769 -38.091728 139.999924
[Rope3_Seg04]
28 139.999924 0.000119 0.000000 -16.200933 1.153443 -40.528637 139.999924
29 139.999924 0.000119 0.000000 -17.210188 0.549376 -43.958168 139.999924
[Rope3_Seg05]
28 139.999924 -0.000238 0.000060 -25.266581 12.444320 -18.875324 139.999924
29 139.999924 -0.000238 0.000060 -26.667133 13.346195 -18.748123 139.999924
[Rope3_Seg06]
28 139.999893 -0.000119 -0.000060 -16.794861 14.471357 -7.281745 139.999893
29 139.999893 -0.000119 -0.000060 -14.315709 12.949349 -5.554663 139.999893
[Rope3_Seg07]
28 139.999771 0.000060 -0.000119 -6.342844 7.549897 -2.194451 139.999771
29 139.999771 0.000060 -0.000119 -5.517305 6.571474 -1.857799 139.999771
[Rope3_Seg08]
28 139.999985 -0.000060 0.000000 -2.682710 4.160892 -0.729453 139.999985
29 139.999985 -0.000060 0.000000 -2.354859 3.624679 -0.656871 139.999985
[Rope3_Seg09]
28 90.185997 -0.000179 -0.000060 89.793228 -1.359877 -0.847183 90.185997
29 90.185997 -0.000179 -0.000060 89.793228 -1.359877 -0.847183 90.185997
[R_rear_hand01]
28 103.366196 -6.073594 -10.757982 176.350891 -15.649886 -68.957756 104.101845
29 103.366196 -6.073594 -10.757982 174.967026 -15.430779 -71.532387 104.101845
[R_rear_hand02]
28 100.509819 12.039542 -7.992327 -18.533081 34.659100 62.503910 101.543350
29 100.509819 12.039542 -7.992327 -16.360678 35.627857 66.274040 101.543350
[R_rear_hand03]
28 101.539970 5.215704 5.435467 76.952393 -63.971798 15.629129 101.819031
29 101.539970 5.215704 5.435467 75.232681 -67.112556 17.511589 101.819031
[Rope4_Seg01]
28 0.000010 0.000009 -0.000035 -132.753143 -33.317795 -49.432354 0.000037
29 0.000010 0.000008 -0.000031 -132.616989 -33.989826 -50.508572 0.000033
[Rope4_Seg02]
28 139.999985 0.000060 0.000119 -3.716091 20.145706 3.433104 139.999985
29 139.999985 0.000060 0.000119 -4.129648 18.598167 2.419667 139.999985
[Rope4_Seg03]
28 139.999924 0.000000 -0.000238 3.325920 37.026455 13.274523 139.999924
29 139.999924 0.000000 -0.000238 1.772647 35.552952 10.602577 139.999924
[Rope4_Seg04]
28 139.999985 0.000000 0.000119 2.908417 24.316072 9.676262 139.999985
29 139.999985 0.000000 0.000119 3.243609 26.053246 9.413911 139.999985
[Rope4_Seg05]
28 139.999802 -0.000060 -0.000119 11.033418 21.524433 -2.624292 139.999802
29 139.999802 -0.000060 -0.000119 10.922750 22.756947 -2.187832 139.999802
[Rope4_Seg06]
28 139.999924 0.000000 0.000060 39.714535 27.173464 -14.286943 139.999924
29 139.999924 0.000000 0.000060 37.952858 26.633339 -12.518214 139.999924
[Rope4_Seg07]
28 139.999802 0.000000 0.000000 24.410818 6.703699 -13.883538 139.999802
29 139.999802 0.000000 0.000000 24.642811 7.214632 -12.504918 139.999802
[Rope4_Seg08]
28 139.999924 0.000000 0.000119 8.012852 0.142787 -7.395494 139.999924
29 139.999924 0.000000 0.000119 8.663865 0.609038 -6.959976 139.999924
[Rope4_Seg09]
28 90.185791 0.000060 0.000060 -135.617828 2.228885 0.850567 90.185791
29 90.185791 0.000060 0.000060 -135.617828 2.228885 0.850567 90.185791
[L_rear_hand01]
28 101.696655 -8.392275 -7.654577 -13.808597 -36.569187 109.397408 102.329041
29 101.696655 -8.392275 -7.654577 -13.120160 -36.794415 108.245636 102.329041
[L_rear_hand02]
28 102.726799 -1.568258 5.773216 72.647568 70.590691 159.713425 102.900848
29 102.726799 -1.568258 5.773216 71.814774 71.499886 158.834518 102.900848
[L_rear_hand03]
28 104.552910 9.721220 -10.420293 -177.121994 -24.509382 -107.501068 105.519653
29 104.552910 9.721220 -10.420293 -177.558792 -24.551929 -106.459061 105.519653
